<svg xmlns="http://www.w3.org/2000/svg" width="431.215" height="93.427"><path fill="#FFAE5F" d="M46.713 5.093c11.254 0 21.472 4.497 28.971 11.779a29.853 29.853 0 0 0-10.169 3.226 32.416 32.416 0 0 0-18.802-5.992c-17.98 0-32.607 14.628-32.607 32.607S28.733 79.32 46.713 79.32a32.422 32.422 0 0 0 18.802-5.991 29.864 29.864 0 0 0 10.168 3.227c-7.498 7.282-17.716 11.778-28.97 11.778-22.95 0-41.621-18.671-41.621-41.621 0-22.949 18.671-41.62 41.621-41.62m57.838 41.62c0 11.259-7.482 20.797-17.733 23.92a46.422 46.422 0 0 0 6.608-23.92 46.415 46.415 0 0 0-6.608-23.918c10.251 3.123 17.733 12.66 17.733 23.918m-25.231 0c0-8.976-3.646-17.116-9.535-23.019a24.868 24.868 0 0 1 9.761-1.985c.146 0 .287.019.433.022a41.403 41.403 0 0 1 8.355 24.982 41.396 41.396 0 0 1-8.356 24.983c-.145.004-.286.022-.432.022-3.462 0-6.761-.709-9.761-1.986 5.889-5.901 9.535-14.043 9.535-23.019M60.875 70.294a27.356 27.356 0 0 1-14.162 3.934c-15.171 0-27.515-12.343-27.515-27.515 0-15.171 12.344-27.514 27.515-27.514a27.353 27.353 0 0 1 14.162 3.934c-6.954 5.518-11.427 14.034-11.427 23.58 0 9.547 4.473 18.062 11.427 23.581m-6.334-23.581c0-8.425 4.201-15.875 10.606-20.407 5.572 5.038 9.081 12.32 9.081 20.407 0 8.088-3.509 15.37-9.082 20.409-6.404-4.533-10.605-11.983-10.605-20.409m-7.828 46.714c14.369 0 27.238-6.526 35.814-16.764 15.202-1.502 27.117-14.359 27.117-29.95 0-15.589-11.915-28.446-27.116-29.948C73.952 6.526 61.082 0 46.713 0 20.955 0 0 20.956 0 46.713c0 25.758 20.955 46.714 46.713 46.714"/><path d="M378.61 24.126c0 7.369.045 14.739-.03 22.107-.021 2.04-.197 4.125-.66 6.106-1.17 5.012-4.104 8.659-9.029 10.471-3.96 1.456-8.03 1.511-12.081.434-4.457-1.185-7.634-3.93-9.452-8.184-.941-2.202-1.461-4.517-1.476-6.902-.051-8.021-.04-16.041-.055-24.06v-.974h-6.184c-.013.252-.037.48-.037.708-.002 7.655-.063 15.312.036 22.966.03 2.377.276 4.796.795 7.114 1.449 6.484 5.063 11.364 11.33 13.972 4.754 1.978 9.703 2.307 14.729 1.219 4.442-.962 8.015-3.28 10.64-7.004.483-.687.9-1.422 1.47-2.326 0 2.734.058 5.25-.021 7.762-.052 1.632-.169 3.285-.491 4.881-1.084 5.366-4.166 9.082-9.487 10.674-4.314 1.292-8.698 1.3-13.041.057-3.579-1.023-6.407-3.076-8.297-6.325-.388-.665-.589-1.63-1.159-1.946-.622-.344-1.574-.102-2.382-.104-1.188-.005-2.377-.001-3.568-.001 0 .166-.009.218.002.264.037.15.076.303.125.45 1.94 5.809 5.739 9.925 11.449 12.134 6.38 2.467 12.907 2.488 19.405.5 5.625-1.722 9.666-5.309 11.9-10.803 1.365-3.355 1.798-6.88 1.799-10.472.002-14.295 0-28.59 0-42.886v-.82h-6.229v.988zM187.693 42.348c.294-2.228.992-4.277 2.106-6.166 2.929-4.972 7.388-7.624 13.037-8.369 4.151-.548 8.155-.035 11.93 1.873 5.122 2.588 8.204 7.618 8.853 12.662h-35.926zm42.17-.434c-1.134-7.478-4.87-13.269-11.556-16.972-5.333-2.953-11.104-3.651-17.061-2.721-7.177 1.122-12.918 4.598-16.736 10.87-3.146 5.168-4.027 10.839-3.143 16.765 1.049 7.022 4.5 12.584 10.578 16.374 5.005 3.122 10.539 4.127 16.354 3.599 7.027-.638 12.923-3.486 17.267-9.181 1.07-1.402 1.96-2.916 2.631-4.67-2.082 0-4.058.019-6.033-.014-.513-.009-.791.16-1.052.593a14.532 14.532 0 0 1-5.52 5.296c-3.912 2.147-8.125 2.727-12.499 2.193-5.463-.665-9.897-3.107-12.91-7.821-1.594-2.495-2.441-5.246-2.703-8.271h42.825c-.145-2.105-.147-4.095-.442-6.04m91.868 2.506c-3.664-.777-7.384-1.299-11.082-1.908-2.263-.373-4.543-.662-6.629-1.71-1.487-.748-2.579-1.84-2.968-3.514-.738-3.178.681-6.382 3.721-8.044 3.924-2.145 8.101-2.235 12.291-1.004 3.425 1.008 5.873 3.094 6.46 6.859.025.169.319.421.492.424 1.849.031 3.697.019 5.745.019-.2-1.155-.287-2.196-.568-3.183-1.294-4.535-4.395-7.421-8.699-9.038-5.101-1.917-10.323-1.961-15.516-.423-6.722 1.991-10.535 7.219-10.316 13.989.124 3.853 1.72 6.92 5.24 8.699 1.609.814 3.348 1.509 5.106 1.87 3.339.686 6.734 1.094 10.107 1.61 2.165.332 4.337.644 6.336 1.611 2.43 1.176 3.53 3.29 3.165 5.949-.369 2.695-1.821 4.699-4.2 5.844-5.335 2.565-10.78 2.579-16.142.063-2.25-1.056-3.703-2.913-4.266-5.385-.09-.396-.144-.799-.211-1.175h-6.263c.029.369.038.681.079.986.688 5.15 3.58 8.727 8.203 10.815 6.457 2.917 13.125 2.979 19.716.519 5.235-1.953 8.634-5.652 9.333-11.387.402-3.304-.164-6.398-2.561-8.921-1.796-1.893-4.083-3.037-6.573-3.565m106.868 3.635c-1.802-1.933-4.108-3.093-6.625-3.63-3.661-.783-7.381-1.302-11.081-1.911-2.262-.372-4.543-.66-6.63-1.704-1.489-.745-2.586-1.833-2.979-3.506-.754-3.207.673-6.443 3.773-8.082 4.315-2.281 8.831-2.286 13.316-.587 2.968 1.124 4.931 3.245 5.374 6.527.017.119.086.231.123.328h6.024c-.041-.518-.052-.982-.12-1.437-.086-.564-.183-1.133-.342-1.68-1.311-4.531-4.394-7.425-8.696-9.047-5.098-1.921-10.319-1.962-15.515-.433-6.738 1.982-10.583 7.264-10.332 14.057.142 3.821 1.736 6.863 5.226 8.629 1.608.815 3.345 1.515 5.104 1.875 3.364.689 6.786 1.097 10.186 1.62 2.164.334 4.335.648 6.328 1.635 2.388 1.18 3.472 3.271 3.113 5.903-.37 2.726-1.844 4.738-4.258 5.888-5.289 2.517-10.688 2.535-16.005.083-2.28-1.053-3.771-2.914-4.343-5.419-.091-.396-.146-.803-.219-1.221h-6.258c.028.388.033.697.074 1.002.684 5.15 3.569 8.734 8.192 10.824 6.48 2.932 13.176 2.992 19.788.505 5.232-1.968 8.606-5.694 9.284-11.427.387-3.245-.172-6.294-2.502-8.792m-260.926 4.883c-.541-.011-.767.181-.959.664a15.976 15.976 0 0 1-4.446 6.236c-3.089 2.673-6.731 4.012-10.764 4.307-5.308.39-10.176-.795-14.231-4.401-4.091-3.637-5.821-8.355-5.851-13.72-.03-5.241 1.501-9.987 5.466-13.566 6.004-5.419 13.012-6.054 20.384-3.449 4.519 1.597 7.643 4.843 9.496 9.28.1.24.384.57.589.575 1.949.043 3.899.026 5.83.026.025-.091.041-.118.037-.141-.017-.102-.033-.204-.062-.302-1.888-6.459-5.851-11.184-11.931-14.088-5.075-2.423-10.441-3.012-15.951-2.139-7.172 1.137-12.913 4.604-16.728 10.876-3.144 5.169-4.032 10.839-3.137 16.762 1.13 7.479 4.924 13.244 11.587 16.959 5.064 2.824 10.556 3.6 16.27 2.918 5.557-.664 10.43-2.818 14.402-6.824 2.755-2.778 4.559-6.101 5.604-9.959-1.915 0-3.761.024-5.605-.014m115.83-15.178c-1.597-7.058-5.724-12.066-12.672-14.447-5.737-1.965-11.59-1.988-17.393-.286-5.72 1.678-9.866 5.267-12.265 10.759-1.546 3.541-2.078 7.287-2.08 11.121-.005 7.706-.002 15.413-.002 23.119v.683h6.223v-.971c0-7.42-.033-14.84.023-22.26.015-1.915.136-3.864.519-5.735 1.088-5.311 4.034-9.185 9.264-11.075 3.181-1.149 6.482-1.315 9.799-.824 5.35.791 9.365 3.466 11.59 8.517a18.175 18.175 0 0 1 1.547 7.28c.044 8.045.032 16.09.042 24.135v.94h6.23v-.645c-.001-7.784.057-15.569-.039-23.354-.028-2.324-.274-4.691-.786-6.957"/></svg>